<svg id="Layer_1" data-name="Layer 1" xmlns="http://www.w3.org/2000/svg" viewBox="0 0 70.87 70.87"><defs><style>.cls-1{fill:#559fbe;}.cls-2{fill:#fff;}</style></defs><title>airport</title><path class="cls-1" d="M34.6,69.52S49.76,55.36,54.92,50.13A28.76,28.76,0,1,0,5.82,29.81a28.52,28.52,0,0,0,8.85,20.7C19.83,55.51,34.6,69.52,34.6,69.52Z"/><path class="cls-2" d="M23.87,38.84,18.45,39a.92.92,0,0,0-.64.32l-.74.74,6.38,3.09,3.09,6.38.74-.74c.21-.21.21-.43.32-.64l.21-5.43,8.09-7.13L43.24,51l1.92-1.92a2,2,0,0,0,.53-1.38l-1.6-19.26,8.83-10.64a1.6,1.6,0,0,0,.43-1.17l.11-1.38a1.9,1.9,0,0,0-2-2L50,13.3a2.23,2.23,0,0,0-1.17.43L38.24,22.55,19,21a1.63,1.63,0,0,0-1.38.53l-1.92,1.92L31,30.75Z"/></svg>