<svg id="Layer_1" data-name="Layer 1" xmlns="http://www.w3.org/2000/svg" viewBox="0 0 100 100"><defs><style>.cls-1{fill:#4b537e;}</style></defs><title>city</title><path class="cls-1" d="M87.17,93.66V61.34l-10-3.17V93.66H75.91V44.13L65.91,41v52.8H64.66V21.33h-3V18.54H58V15.85H53.41v-1a1,1,0,0,0-1-1H52L51.39,2.38A.41.41,0,0,0,51,2a.44.44,0,0,0-.48.38l-.58,11.54h-.48a1,1,0,0,0-1,1v1H43.89v2.69H40.23v2.79h-3V93.76H36v-64L14.94,33V93.76H12.05v2.5h78.1v-2.5h-3ZM80.24,64.81H83.9v4.14H80.24Zm0,7H83.9V76H80.24Zm0,7.12H83.9v4.14H80.24Zm0,7.12H83.9V90.2H80.24ZM69,47.59h3.65v8.18H69ZM69,59h3.65v8.18H69Zm0,11.45h3.65v8.18H69ZM69,82h3.65V90.2H69ZM27.25,36.43H30.9v4.14H27.25Zm0,7.12H30.9v4.14H27.25Zm0,7H30.9v4.14H27.25Zm0,7.12H30.9v4.14H27.25Zm0,7.12H30.9v4.14H27.25Zm0,7H30.9V76H27.25Zm0,7.12H30.9v4.14H27.25Zm0,7.12H30.9V90.2H27.25ZM19.36,36.43H23v4.14H19.36Zm0,7.12H23v4.14H19.36Zm0,7H23v4.14H19.36Zm0,7.12H23v4.14H19.36Zm0,7.12H23v4.14H19.36Zm0,7H23V76H19.36Zm0,7.12H23v4.14H19.36Zm0,7.12H23V90.2H19.36ZM56.77,24.8h3.65v4.14H56.77Zm0,7.12h3.65V36H56.77Zm0,7.12h3.65v4.14H56.77Zm0,7h3.65v4.14H56.77Zm0,7.12h3.65V57.3H56.77Zm0,7.12h3.65v4.14H56.77Zm0,7h3.65v4.14H56.77Zm0,7.12h3.65v4.14H56.77Zm1.44,7.41V93.76H51.39V81.83Zm-9.33-57h3.65v4.14H48.89Zm0,7.12h3.65V36H48.89Zm0,7.12h3.65v4.14H48.89Zm0,7h3.65v4.14H48.89Zm0,7.12h3.65V57.3H48.89Zm0,7.12h3.65v4.14H48.89Zm0,7h3.65v4.14H48.89Zm0,7.12h3.65v4.14H48.89Zm-8-49.63h3.65v4.14H40.9Zm0,7.12h3.65V36H40.9Zm0,7.12h3.65v4.14H40.9Zm0,7h3.65v4.14H40.9Zm0,7.12h3.65V57.3H40.9Zm0,7.12h3.65v4.14H40.9Zm0,7h3.65v4.14H40.9Zm0,7.12h3.65v4.14H40.9Zm2.4,7.41h6.83V93.76H43.31Z"/></svg>