<svg id="Layer_1" data-name="Layer 1" xmlns="http://www.w3.org/2000/svg" viewBox="0 0 96 96"><defs><style>.cls-1{fill:#4b537e;}</style></defs><title>empire</title><path class="cls-1" d="M72.51,91.15H69.32V86.78h-3.4V76.14H63.25V65.5h-3V32.2H58.89V26.88H57.61V23.79h-1V19.54H54.1L53.25,11H52.4V3.26a.53.53,0,1,0-1.06,0v7.87h-.85l-.85,8.51h-3V23.9h-1V27H44.42v5.32H43V65.5h-3V76.14H37.39V86.78H34v4.36H30.8a1.07,1.07,0,0,0-1.06,1.06,1,1,0,0,0,1.06,1.06H72.61a1.07,1.07,0,0,0,1.06-1.06A1.09,1.09,0,0,0,72.51,91.15Z"/></svg>