<svg id="Layer_1" data-name="Layer 1" xmlns="http://www.w3.org/2000/svg" viewBox="0 0 70.87 70.87"><defs><style>.cls-1{fill:#9359a4;}</style></defs><title>info</title><path class="cls-1" d="M68.58,35.45c0-.08,0-.16,0-.24a33.09,33.09,0,0,0-2-11.17l-.06-.16-.22-.59L66,22.58v0A33.2,33.2,0,0,0,35.69,2.28h-.5a33.05,33.05,0,0,0-11.91,2.3l-.06,0-.68.28-.43.19-.3.13a33.19,33.19,0,0,0-19.53,30c0,.08,0,.15,0,.23s0,.17,0,.25a33.06,33.06,0,0,0,2.29,11.9l.15.37.15.36A33.2,33.2,0,0,0,35.21,68.58h.46a33.1,33.1,0,0,0,10.39-1.74l.41-.14.34-.12A33.21,33.21,0,0,0,68.58,35.66C68.58,35.58,68.58,35.52,68.58,35.45ZM36.36,12.71a6,6,0,1,1-6,6.06A6,6,0,0,1,36.36,12.71Zm8,41.4A11.16,11.16,0,0,1,36.68,58a15.14,15.14,0,0,1-5.1-.23A6.3,6.3,0,0,1,26.83,51c.39-3.13,1-6.24,1.51-9.35.45-2.71.94-5.41,1.39-8.12a4.71,4.71,0,0,0,0-1.35,1.53,1.53,0,0,0-1.33-1.4c-.44-.08-.92,0-1.35-.15a5.65,5.65,0,0,1-1.78-.68,1.23,1.23,0,0,1,.27-2.16A4.1,4.1,0,0,1,27,27.47c1.95,0,3.9,0,5.85,0v0h6A2,2,0,0,1,41,29.31a7.94,7.94,0,0,1-.27,3.2q-1.25,6.7-2.47,13.4c-.25,1.38-.48,2.77-.71,4.15a4.16,4.16,0,0,0,0,.71c0,2.72,1.75,3.09,3.72,2.3a16.59,16.59,0,0,0,1.58-.89c.92-.49,1.41-.51,1.78-.08A1.47,1.47,0,0,1,44.41,54.11Z"/></svg>