<svg id="Layer_1" data-name="Layer 1" xmlns="http://www.w3.org/2000/svg" viewBox="0 0 64.81 95.33"><defs><style>.cls-1{fill:#4b537e;}</style></defs><title>statue</title><path class="cls-1" d="M74.73,89.42A14.69,14.69,0,0,0,72,87.23C71.41,86,69.06,85,69.06,85c-.27-1.34-1.5-5.83-1.5-5.83a1.44,1.44,0,0,0,1.23-1.55c0-.32-.71-2.14-1-2.82-.55-1.51-.65-4.1-.44-3.92,0,0,1.28,0,1.48-.43a.42.42,0,0,0-.29-.62c.42-.18,0-.5,0-.5.32-.27-.48-.64-.08-1.3a.44.44,0,0,0,.05-.46l16.17.71s-16-2.86-15.9-3.17a15.16,15.16,0,0,0-.09-2.75c.38-.06,14.57-4.78,14.57-4.78L68.15,59.91c-.39-1.51-2.19-3-2-3.1l9.74-10.06L64,55.4c-1.83-1.15-4-1.56-4-1.74,0-.46-.12-15.16-.2-14.53s-2.44,14.4-2.62,14.4a10,10,0,0,0-4.76,1C52.15,54.35,41.52,43,42,43.86c.25.44,7.92,11.9,7.92,11.9-.82.12-2.84,2.69-2.84,2.69s-8.35-.59-8.35-.82A21.22,21.22,0,0,1,37.54,55c.92-3.15-.64-10.71-.64-11.25a39,39,0,0,0-.84-4.36,28.45,28.45,0,0,1-.19-4.7c0-.64.49-3.18.49-3.72s.38-.74.49-1.32.09-2.05.3-2.69c0,0-.2-2.65-.18-2.85.07-.69-1-2.46-.75-2.55,7.22-2.73,5-6.61,5-6.82.52-4.21-3.25-6.2-3-6.55a2,2,0,0,0,.21-1.91c-.4-.34-.57-.48-.57-.58A2.31,2.31,0,0,0,37,4.14c-1.09-.61-1.37-1-1.55-1.66-.08-.29-.49-.06-1.4-.06S32,3.43,31.38,3.7a2.3,2.3,0,0,0-1,1.62,1.42,1.42,0,0,0-.92,1.32,9.7,9.7,0,0,0-6,6c-2.85,4.5,2.16,7.63,2.16,7.63s.34.23.26.47c-.45,1.31.09,1.36.19,1.62a3.06,3.06,0,0,1,.2,1.36,13.85,13.85,0,0,0-.54,2.3,17.66,17.66,0,0,0,1.12,3.13c-.26,1.63.81,1.74.81,2,0,1.25.37,1.05.37,1.25,0,.41.17.44.14.58-.37,1.65-1.17,8.58-1.27,8.83-1.19,2.73-.18,9.53,0,10.51a7.47,7.47,0,0,0,.58,1.54,6.56,6.56,0,0,1,.05,2.1c0,.39.18,5.29.18,5.29-.4.34-2.19,1.76-2.53,2.06a11.18,11.18,0,0,0-1.49,2c-3,2.56-3.57,4.6-3.57,4.6-1,4.12,1,4.38,1.21,4.84,1,2.28,3.35,1.93,3.18,2.08a4,4,0,0,0-1.35,1.5c-.18.55.31.58.31.58-1.36,1.15-2,4.41-1.46,5.48s1.47,1.5,1.51,1.85c.15,1.35,1.66,1,1.56,1.29a13.47,13.47,0,0,0-.57,3.21c0,1,.49,1,.49,1a12.6,12.6,0,0,0-1.87,3.69c-.28,1.69.28,1.77.72,2.27h55c-.51-.86-.9-4.13-1.71-5.28C77.19,92.38,75,89.78,74.73,89.42ZM40.86,60s-.63-.85-.35-.71a53.24,53.24,0,0,0,5.27,1.39,22.11,22.11,0,0,0-.61,2.51A15.92,15.92,0,0,0,42,63.07a9,9,0,0,1-1-1s.16,0,.16-.32C41.12,61.71,41,61.12,40.86,60Zm4.93,10.36s-.5.63-.73.43c0,0-.35,0-1.82-1.8A9.65,9.65,0,0,0,42,68.17s0-1-.32-1.23c0,0,.09-.81-.29-1,0,0-.13-.83,0-.77s3.66.32,3.66.32c.16,0,.19.33.08.51,0,0-.47,3.31.67,3.31C45.79,69.36,45.93,70.13,45.79,70.36Z" transform="translate(-19.91 -2.33)"/></svg>