<svg id="Layer_1" data-name="Layer 1" xmlns="http://www.w3.org/2000/svg" viewBox="0 0 100 100"><defs><style>.cls-1{fill:#4b537e;}</style></defs><title>zoo</title><ellipse class="cls-1" cx="66.05" cy="23.48" rx="14.67" ry="10.77" transform="translate(29.35 83.2) rotate(-78)"/><ellipse class="cls-1" cx="34.91" cy="23.39" rx="10.77" ry="14.67" transform="translate(-4.1 7.77) rotate(-12)"/><ellipse class="cls-1" cx="13.82" cy="45.67" rx="9.71" ry="13.2" transform="translate(-22.1 14.27) rotate(-32)"/><ellipse class="cls-1" cx="87.2" cy="45.62" rx="13.2" ry="9.71" transform="translate(2.3 95.4) rotate(-58)"/><path class="cls-1" d="M56.14,46.42c-1.9-1-3.8-1.9-5.7-1.9s-3.8,1-5.7,1.9C32.91,52.65,24.89,62,22.15,75.34a23.1,23.1,0,0,0,.53,12.56,4.79,4.79,0,0,0,4.86,3.38,11.86,11.86,0,0,0,3.38-.42c2.43-.63,4.86-1.48,7.28-2.11,4.12-1,8.13-2.64,12.35-2.64,4,0,8.23,1.58,12.35,2.64,2.43.53,4.86,1.48,7.28,2.11a11.86,11.86,0,0,0,3.38.42,4.76,4.76,0,0,0,4.86-3.38,23.15,23.15,0,0,0,.53-12.56C76.09,62,68.07,52.65,56.14,46.42Z"/></svg>