<svg id="Layer_1" data-name="Layer 1" xmlns="http://www.w3.org/2000/svg" xmlns:xlink="http://www.w3.org/1999/xlink" viewBox="0 0 283.46 283.46"><defs><style>.cls-1{fill:#ffd120;}.cls-2{fill:#8cc63f;}.cls-3{fill:#fcb017;}.cls-4{fill:#ffebcb;}.cls-5{clip-path:url(#clip-path);}.cls-6{fill:#f7921e;}.cls-7{fill:#35312d;}.cls-8{fill:#b8bec4;}.cls-9{fill:#fabfae;}.cls-10{fill:#9ba6ae;}.cls-11{fill:#fef0ea;}.cls-12{fill:#d7dadd;}.cls-13,.cls-20{fill:#8e5f25;}.cls-14{fill:#bd862d;}.cls-15{fill:#629b51;}.cls-16{clip-path:url(#clip-path-2);}.cls-17{fill:#70b250;}.cls-18{fill:#d68737;}.cls-19{fill:#e49f6a;}.cls-20{opacity:0.3;}.cls-21{fill:#453434;}.cls-22{fill:#fff;}.cls-23{fill:#63c9d6;}</style><clipPath id="clip-path"><path id="_Clipping_Path_" data-name="&lt;Clipping Path&gt;" class="cls-1" d="M164.91,188.37c9.37,29.09-.41,58.2-.7,74.36,0,0,5.48,1.65,2,5.42s-11.45,1.91-12.15-.95c-2.64-10.77,2.22-28.38,1.69-41.46-.57-14.19-3.94-16.07-7.91-16.15-4,.08-7.34,2-7.91,16.16-.53,13.08,3.8,30.7,1.16,41.48-.7,2.86-8.43,4.75-11.95,1s2.24-6.4,2.24-6.4c-.29-16.16-10-44.35-.64-73.43,4.12-9.59,10.87-95.74,10.87-133.86H152S152.39,167.82,164.91,188.37Z"/></clipPath><clipPath id="clip-path-2"><path id="_Clipping_Path_2" data-name="&lt;Clipping Path&gt;" class="cls-2" d="M82.66,82.27s-18.33-4.63-25.07,3c-5.09,5.76.76,15.53,7.75,10.45,2.7-2-2-4.72-3-3,0,0,0-4.38,4.38-3s5.39,10.11-1.35,11.79S49.71,100.08,49.16,88C48.5,73.21,69.54,60.66,86.9,71.86a5.36,5.36,0,0,1,6-1.54c5.21,1.93,7.41,4.86,9.07,11.38C99.13,85.79,88.83,88.83,82.66,82.27Z"/></clipPath></defs><title>zooImage</title><path class="cls-3" d="M157.24,257.8c.17-9.29,6-26,.59-42.71l-9.36-6v-.21l-.47.1-.47-.1v.21l-9.55,6c-5.39,16.73.19,32.82.36,42.11,0,0-3.31,1.51-1.29,3.68s6.47,1.09,6.87-.56c1.52-6.2-1-16.33-.67-23.86.33-8.16,2.27-9.25,4.55-9.29s4.22,1.13,4.55,9.29c.3,7.52-2.49,17.66-1,23.86.4,1.65,5,2.73,7,.56S157.24,257.8,157.24,257.8Z"/><path class="cls-4" d="M137.71,226.73s11.79,11,21.41,0l.93-35.58-21.72-1.84Z"/><path id="_Clipping_Path_3" data-name="&lt;Clipping Path&gt;" class="cls-1" d="M164.91,188.37c9.37,29.09-.41,58.2-.7,74.36,0,0,5.48,1.65,2,5.42s-11.45,1.91-12.15-.95c-2.64-10.77,2.22-28.38,1.69-41.46-.57-14.19-3.94-16.07-7.91-16.15-4,.08-7.34,2-7.91,16.16-.53,13.08,3.8,30.7,1.16,41.48-.7,2.86-8.43,4.75-11.95,1s2.24-6.4,2.24-6.4c-.29-16.16-10-44.35-.64-73.43,4.12-9.59,10.87-95.74,10.87-133.86H152S152.39,167.82,164.91,188.37Z"/><g class="cls-5"><path class="cls-6" d="M130.58,185c-6.12,0-6.12,9.06,0,9.06C136.23,194.1,136.23,185,130.58,185Z"/><path class="cls-6" d="M139.53,169.19c-8.94,0-8.94,13.74,0,13.74S148.47,169.19,139.53,169.19Z"/><path class="cls-6" d="M158.77,156.59a7.76,7.76,0,1,0,2.27,5.49A7.79,7.79,0,0,0,158.77,156.59Z"/><path class="cls-6" d="M157.88,174.17c-7.53,0-7.53,11.4,0,11.4C164.94,185.56,164.94,174.17,157.88,174.17Z"/><path class="cls-6" d="M147.53,187.57a2.34,2.34,0,1,0,0,4.68C149.88,192.25,149.88,187.57,147.53,187.57Z"/><path class="cls-6" d="M163.74,186.21a6.82,6.82,0,1,0,6.82,6.82A6.88,6.88,0,0,0,163.74,186.21Z"/><path class="cls-6" d="M139.56,148a4.52,4.52,0,1,0,4.52,4.52A4.56,4.56,0,0,0,139.56,148Z"/><path class="cls-6" d="M146.11,187.12c-6.59,0-6.59,10.43,0,10.43C153.17,197.55,153.17,187.12,146.11,187.12Z"/><path class="cls-6" d="M126,212.7a4.58,4.58,0,0,0-4,6.89,4.44,4.44,0,0,0,2.74,2.1,4.49,4.49,0,0,0,2.43,0,4.58,4.58,0,0,0-1.22-9Z"/><path class="cls-6" d="M138.58,234.62c-5.65,0-5.65,9,0,9S144.23,234.62,138.58,234.62Z"/><path class="cls-6" d="M155.05,238c-5.18,0-5.18,8.38,0,8.38C160.7,246.41,160.7,238,155.05,238Z"/><path class="cls-6" d="M167.29,217.08a3,3,0,1,0,0,5.94C170.58,223,170.58,217.08,167.29,217.08Z"/><path class="cls-6" d="M172.28,232.24l0-.11a6.67,6.67,0,1,0-8.21,8.21l.11,0a6.61,6.61,0,0,0,6.42-1.69,6.62,6.62,0,0,0,1.7-6.42Z"/><path class="cls-6" d="M140.47,217.08c-8,0-8,12.86,0,12.86C148.94,229.94,148.94,217.08,140.47,217.08Z"/></g><path class="cls-1" d="M161.17,63.92a15.53,15.53,0,0,1-15.53,15.53h0a15.53,15.53,0,0,1-15.53-15.53V44.63A15.53,15.53,0,0,1,145.64,29.1h0a15.53,15.53,0,0,1,15.53,15.53Z"/><path class="cls-4" d="M130.14,63.78v.52a15.59,15.59,0,1,0,31.18,0v-.52S156.12,57,145.21,57,130.14,63.78,130.14,63.78Z"/><circle class="cls-7" cx="135.34" cy="50.79" r="2.08"/><circle class="cls-1" cx="141.05" cy="68.98" r="2.08"/><circle class="cls-1" cx="150.41" cy="68.98" r="2.08"/><circle class="cls-7" cx="155.6" cy="50.79" r="2.08"/><rect class="cls-1" x="136.4" y="20.97" width="3.64" height="12.99" transform="translate(-1.58 45.22) rotate(-18.48)"/><circle class="cls-3" cx="135.37" cy="19.2" r="4.5" transform="translate(0.9 43.89) rotate(-18.48)"/><rect class="cls-1" x="144.32" y="25.65" width="12.99" height="3.64" transform="translate(76.97 161.8) rotate(-71.53)"/><circle class="cls-3" cx="153.67" cy="19.2" r="4.5" transform="translate(86.76 158.86) rotate(-71.52)"/><path class="cls-1" d="M137.07,33.82s-5.2-5.2-10.39-4.85S124.6,41.09,134,39.7"/><path class="cls-1" d="M152.31,33.82s5.2-5.2,10.39-4.85,2.08,12.13-7.28,10.74"/><path class="cls-3" d="M132.74,35.2s-2.86-3.12-6-2.6C126.76,32.6,128.58,40.14,132.74,35.2Z"/><path class="cls-3" d="M156.12,35.2s2.86-3.12,6-2.6C162.1,32.6,160.28,40.14,156.12,35.2Z"/><path class="cls-8" d="M225.84,203.88a41,41,0,0,1,4.52,29.36c-3.61,17.16,1.81,19.88-.45,23.94S218.61,259,218.61,259l.9-54.2Z"/><path class="cls-8" d="M181.62,199.88S166.86,209.76,170,235c2.15,17.41-2,19.86.21,23.94s11.27,1.92,11.27,1.92l-.36-54.21Z"/><path class="cls-9" d="M218.82,248.59s-21.89,10.37-39.76,0l-1.73-33.42,40.33-1.73Z"/><path class="cls-10" d="M174.35,262.28c-.45-13.54-15.52-36.1-1.08-60.47l25.55-8.72v-.31l.94.15.94-.15v.31l25.41,8.72c14.44,24.37-.61,46.93-1.06,60.47,0,0,6.24,3.16.82,6.32s-14.75,1.5-15.83-.9c-4.06-9,2.6-23.79,1.79-34.75-.88-11.89-6.07-13.47-12.19-13.53s-11.31,1.64-12.19,13.53c-.81,11,5.86,25.72,1.8,34.75-1.08,2.4-10.38,4.06-15.8.9S174.35,262.28,174.35,262.28Z"/><path class="cls-10" d="M167.65,165.8s-4.85-11.07-11.42-7.09,3.5,11.44,8.93,10S167.65,165.8,167.65,165.8Z"/><path class="cls-10" d="M194.12,158.56s-1.46-12,6.22-11.92,2.82,11.63-2.61,13.12S194.12,158.56,194.12,158.56Z"/><path class="cls-8" d="M216.06,180.78s-12.52-22.5-19.81-23.61-10.3.46-16.09,2.07-9.23,1.8-14.85,6.4-5,30.4-5,30.4l26.23-13.43Z"/><circle class="cls-7" cx="170.04" cy="176.62" r="2.03" transform="translate(-40.6 51.16) rotate(-15.31)"/><circle class="cls-7" cx="196.84" cy="169.29" r="2.03" transform="translate(-37.72 57.99) rotate(-15.31)"/><path class="cls-11" d="M226.24,196.65A23.22,23.22,0,0,1,210,225.17l-21.89,6a23.22,23.22,0,0,1-28.52-16.27l-1.25-4.58a23.22,23.22,0,0,1,16.27-28.52l21.89-6A23.22,23.22,0,0,1,225,192.07Z"/><path class="cls-8" d="M170.19,205.46a12.12,12.12,0,0,1,3.72-6.39,3.8,3.8,0,1,0-3.72,6.39Z"/><path class="cls-8" d="M211.44,194.17a12.12,12.12,0,0,0-6.46-3.6,3.8,3.8,0,1,1,6.46,3.6Z"/><path class="cls-8" d="M102.57,191.39s8.43,15.52,4.69,37.37,1.87,25.3-.47,30.47-11.71,2.3-11.71,2.3l.94-69Z"/><path class="cls-8" d="M52.75,185.35S37.43,197.92,40.67,230c2.23,22.16-2.08,25.27.22,30.48S52.58,263,52.58,263l-.37-69Z"/><path class="cls-8" d="M92.26,241.49s-20.28,11.79-36.82,0l-1.6-38,37.36-2Z"/><path class="cls-10" d="M47.74,260.07c-.47-17.25-15.87-46-.87-77l26.77-11.11v-.39l.47.19.47-.19v.39L101.23,183c15,31-.5,59.79-1,77,0,0,6.54,4,.92,8S85.89,270,84.77,267c-4.22-11.5,2.71-30.31,1.87-44.27-.91-15.15-6.3-17.16-12.65-17.24-6.36.09-11.74,2.09-12.65,17.24-.84,14,6.09,32.77,1.87,44.27-1.12,3.06-10.78,5.17-16.4,1.15S47.74,260.07,47.74,260.07Z"/><path class="cls-8" d="M98.49,145.46s24.38-20.19,39.67,5.27-25,66.35-53.53,30.81Z"/><path class="cls-10" d="M97.1,149.23s18.24-15.11,29.68,3.94-18.68,49.64-40,23Z"/><path class="cls-8" d="M55.42,137.52s-17.56-26.34-39.51-6.34,4.88,70.73,42.44,44.88Z"/><path class="cls-10" d="M55.67,141.53s-13.14-19.71-29.56-4.74,3.65,52.91,31.75,33.57Z"/><path class="cls-12" d="M75.1,126.95c-23.62,0-34.12,7.87-33.59,15.75s2.62,34.12,5.77,37.27,10.5,5.77,12.07,10,.22,13.34-10.78,17.41c-9.37,3.47-15.37-6.13-15.77-13.13.82-3.53,3.9-18.81,3.65-18.82-1.8-.08-5.45,3-9.94,10.11C13.27,206.35,34,231.34,58.93,224.76c27.45-7.25,27.72-31.15,27.72-31.15S84,191,95.57,184.68s10-19.94,11.55-38.84S90.32,126.95,75.1,126.95Z"/><circle class="cls-7" cx="94.2" cy="162.64" r="2.2"/><circle class="cls-7" cx="52.74" cy="162.64" r="2.19"/><path class="cls-4" d="M50.06,179s-13.17,9.27,1,28.29c0,0-2.44-16.58,4.73-21.61C55.76,185.66,57.86,176.05,50.06,179Z"/><path class="cls-4" d="M97.4,184.22s10.89,11.87-7,27.43c0,0,5.92-15.68,0-22.12C90.41,189.52,90.4,179.69,97.4,184.22Z"/><path class="cls-13" d="M253.37,262.24c8-12.18,3.74-34.83,1.64-42.8l-21.41-7.11-21.39,7.15c-2.09,8-6.27,30.64,1.72,42.8,0,0-7.55,1.69-4.61,5.46s20.14,4.18,20.14-3.8-.85-11.75,4.18-11.75,4.2,3.77,4.21,11.74,17.21,7.54,20.14,3.76S253.37,262.24,253.37,262.24Z"/><ellipse class="cls-4" cx="233.62" cy="235.82" rx="7.58" ry="9.23"/><path class="cls-14" d="M213.93,204.94a34.46,34.46,0,0,0-4.57,30.74c5.82,17.68,16.27,11,14.52,4.34s-4.68-14.37.5-20a10.62,10.62,0,0,1,7.52-3.41c15.37,0,16.91,9.91,23.84,9.84,9.33-.09,14.22-6.73,13.79-21.53-.16-5.57-3.46-8.15-7.13-7.85-3.32.28-5.49,3.49-5.49,8,0,1.78.47,4.24-1.18,4.71-3.08.88-5.72-3.84-7.29-5.41C245.31,201.19,213.93,204.94,213.93,204.94Z"/><path class="cls-15" d="M253.86,144.62s4.57-13.41.58-17.13l-13-13.59a5.65,5.65,0,0,0-8-.17h0a5.65,5.65,0,0,0-.17,8Z"/><path class="cls-15" d="M242.23,155.14a5.65,5.65,0,0,1,1-7.92h0a5.65,5.65,0,0,1,7.92,1l11.48,14.91a5.65,5.65,0,0,1-1,7.92h0a5.65,5.65,0,0,1-7.92-1Z"/><path class="cls-3" d="M26.48,246.85a2,2,0,0,1-2.38,1.59h0a2,2,0,0,1-1.59-2.39L54.26,87a2,2,0,0,1,2.38-1.59h0a2,2,0,0,1,1.59,2.39Z"/><path class="cls-3" d="M266.66,246.85a2,2,0,0,0,2.38,1.59h0a2,2,0,0,0,1.59-2.39L238.88,87a2,2,0,0,0-2.38-1.59h0a2,2,0,0,0-1.59,2.39Z"/><path class="cls-4" d="M246.07,117.43a613.36,613.36,0,0,1-199,0l7-40.17a574.27,574.27,0,0,0,185,0Z"/><path class="cls-13" d="M111.46,115.39c6.2-7.51,9.2-11.31,15-19v-.11c-5-.18-7.56-.31-12.6-.61l.16-2.62c6.67.4,10,.55,16.69.74l-.06,1.91c-5.71,7.68-8.66,11.49-14.75,19v.11c5.75.31,8.63.43,14.38.59l-.08,2.63c-7.54-.22-11.31-.39-18.85-.85Z"/><path class="cls-13" d="M155.38,105.86c.13,8.35-5.21,12.87-11.81,12.84-6.83,0-11.5-5.14-11.31-12.49.2-7.7,5.2-12.6,11.81-12.56S155.27,98.66,155.38,105.86Zm-19.62.36c-.1,5.18,2.79,9.9,8,9.92s8.21-4.59,8.15-10.1c0-4.82-2.67-9.82-8-9.84S135.86,100.89,135.75,106.22Z"/><path class="cls-13" d="M181.21,104.85c.52,8.34-4.61,13.1-11.21,13.37-6.83.28-11.72-4.61-11.88-11.95-.16-7.7,4.62-12.82,11.21-13.1S180.77,97.67,181.21,104.85Zm-19.59,1.27c.14,5.18,3.24,9.76,8.47,9.54s8-5,7.68-10.46c-.27-4.82-3.13-9.68-8.47-9.46S161.48,100.79,161.62,106.12Z"/><path id="_Clipping_Path_4" data-name="&lt;Clipping Path&gt;" class="cls-2" d="M82.66,82.27s-18.33-4.63-25.07,3c-5.09,5.76.76,15.53,7.75,10.45,2.7-2-2-4.72-3-3,0,0,0-4.38,4.38-3s5.39,10.11-1.35,11.79S49.71,100.08,49.16,88C48.5,73.21,69.54,60.66,86.9,71.86a5.36,5.36,0,0,1,6-1.54c5.21,1.93,7.41,4.86,9.07,11.38C99.13,85.79,88.83,88.83,82.66,82.27Z"/><g class="cls-16"><path class="cls-1" d="M53.71,72.82c.77,2.89,2.32,3.28,5,4.24S61,79.77,61,79.77s.77-4.24-1.74-6a6.59,6.59,0,0,1-2.51-5"/><path class="cls-1" d="M60.28,67.82c.14,3,1.57,3.69,4,5.21S66,76.16,66,76.16s1.65-4-.44-6.21a6.59,6.59,0,0,1-1.4-5.43"/><path class="cls-1" d="M69.14,65.43c-.71,2.91.46,4,2.38,6.13s.74,3.48.74,3.48S75,71.68,73.59,69a6.59,6.59,0,0,1,.2-5.61"/><path class="cls-1" d="M78.72,65.54c-1.59,2.54-.82,3.93.32,6.56s-.39,3.54-.39,3.54,3.63-2.33,3.19-5.35a6.59,6.59,0,0,1,2-5.26"/></g><circle class="cls-2" cx="91.15" cy="72.43" r="4.82"/><circle class="cls-7" cx="91.15" cy="72.43" r="2.01"/><path class="cls-17" d="M65.48,77.26s5.79,1,5.6,6.17c0,0,2.32-.77,2.51,1.35s-3.86.77-3.86.77-.19,1.93-1.74,1.93-2.51-2.12-.39-3.47a3.35,3.35,0,0,0-3.47-2.7"/><path class="cls-17" d="M78.31,77.17s5.56,1.88,4.53,7c0,0,2.41-.39,2.26,1.73s-3.93.14-3.93.14-.5,1.87-2,1.63-2.14-2.5.18-3.49a3.35,3.35,0,0,0-3-3.22"/><path class="cls-2" d="M249.86,164.56s-10.59-9.41-9-14.61l6.84-29.39c5.41,2.59,10.35,9.25,8.47,15.37Z"/><path class="cls-2" d="M249.94,190.68c-3-.77-2.27-4.77-1.51-7.79l8.25-27.5c5.18,3.06,8.08,9,7.31,12-1.82,5.07-4.65,12.6-1.82,16.37s13.8,1.25,11.61-7.22c0,0,5,3.45,1.88,11.61s-17.5,12.56-24.47,4.08"/><ellipse class="cls-2" cx="217.48" cy="78.26" rx="14.14" ry="11.88"/><circle class="cls-2" cx="206.75" cy="70.28" r="4.07"/><circle class="cls-7" cx="206.75" cy="70.28" r="1.71"/><circle class="cls-2" cx="223.49" cy="67.91" r="4.07" transform="translate(-10.07 64.94) rotate(-16.17)"/><circle class="cls-7" cx="223.49" cy="67.91" r="1.71" transform="translate(-10.07 64.95) rotate(-16.18)"/><path class="cls-15" d="M221.7,82.33a1.14,1.14,0,0,0,1.12,1.25,1.35,1.35,0,0,0,1.2-1.35A1.13,1.13,0,0,0,222.9,81,1.35,1.35,0,0,0,221.7,82.33Z"/><path class="cls-15" d="M218.12,83.46a1.14,1.14,0,0,1-.53,1.6,1.35,1.35,0,0,1-1.64-.76,1.14,1.14,0,0,1,.53-1.6A1.35,1.35,0,0,1,218.12,83.46Z"/><path class="cls-13" d="M105.57,260.82c.39-5.2-.9-10-4.89-13.56-3.42-3-8.12-4.66-10.84-8.47-1.63-2.28-3.64-8.51-1-11a3.16,3.16,0,0,1,2.81-.71c1.74,1.09-.21,1.46-.55,1.61-6.68,3-.9,12.77,5.74,9.82,7.46-3.32,8.46-13.3,3.21-19.07-5.45-6-15.65-4.62-20.32,1.63-4.8,6.43-4.08,16.42,0,23,2.34,3.76,5.83,6.54,9.47,9s5.38,3,5,7.76c-.55,7.3,10.83,7.27,11.38,0Z"/><path class="cls-13" d="M132,260.58h-9.66a10.11,10.11,0,0,0-20.23.14c0,3.23,7,6.11,9.37,8H129c4.5,0,9.67-.78,10.17-5.94s-.83-10.84-4.67-6C132.16,259.71,132,260.58,132,260.58Z"/><path class="cls-18" d="M135.59,262.22h-9.66a10.11,10.11,0,0,0-20.23.14c0,3.23,7,6.11,9.37,8h17.51c4.5,0,9.67-.78,10.17-5.94s-.83-10.84-4.67-6C135.73,261.35,135.59,262.22,135.59,262.22Z"/><path class="cls-18" d="M126.49,243.62c-1.78-10-1.49-15-10.21-15h-.1a15.8,15.8,0,0,0-15.71,15.88v17c0,8.72,5.34,8.79,15.37,8.79S126,262,127,256.36,126.49,243.62,126.49,243.62Z"/><path class="cls-9" d="M110.59,267.85a29.67,29.67,0,0,0-1.31-8.5c-1.38-3.92-4.3-9.57-8.89-10.28v12.45c0,7.05,3.51,8.45,10.17,8.73A19.7,19.7,0,0,0,110.59,267.85Z"/><circle class="cls-18" cx="138.39" cy="212.78" r="5.5"/><circle class="cls-4" cx="138.39" cy="212.78" r="2.91"/><circle class="cls-18" cx="111.86" cy="212.78" r="5.5"/><circle class="cls-4" cx="111.85" cy="212.78" r="2.91"/><circle class="cls-18" cx="124.8" cy="222.81" r="15.53"/><rect class="cls-4" x="113.64" y="215.45" width="22.12" height="10.82" rx="5.18" ry="5.18"/><circle class="cls-4" cx="124.8" cy="228.95" r="7.23"/><circle class="cls-19" cx="127.66" cy="227.38" r="1.34"/><circle class="cls-19" cx="121.61" cy="227.38" r="1.34"/><circle class="cls-7" cx="131.16" cy="221.08" r="1.42"/><circle class="cls-7" cx="118.54" cy="221.08" r="1.42"/><path class="cls-20" d="M100.69,258s.36-5.16,3.12-8.77c3.14-4.1,8.89-6.74,11.84-7.44C115.65,241.8,96.82,240.62,100.69,258Z"/><path class="cls-18" d="M101.28,258.12c-1.93-5-.72-7.29,1.27-10.27,1.81-2.7,8.95-4.43,13.1-6.05l-3.36-7c-.12,0-10.26,2.23-14.55,9.81-2.82,5-4.49,9.15-1.58,16.25,1.41,2.62,2.6,6.37,5.09,5a3.14,3.14,0,0,0,1.42-4s2.08.74,2.23-1.2S101.28,258.12,101.28,258.12Z"/><path class="cls-13" d="M208.18,179.26s-8.12-2.6-6.39-9.56,8.4-9.58,13.62-7,4.07,10.14,4.07,10.14Z"/><path class="cls-4" d="M210.83,175.63s-3.55-1.14-2.79-4.18a4.2,4.2,0,0,1,6-3c2.28,1.14,1.78,4.44,1.78,4.44Z"/><path class="cls-13" d="M256.9,179.21s8.12-2.62,6.37-9.58-8.42-9.56-13.63-6.95-4.05,10.15-4.05,10.15Z"/><path class="cls-4" d="M254.24,175.59s3.55-1.14,2.79-4.19a4.2,4.2,0,0,0-6-3c-2.28,1.14-1.77,4.44-1.77,4.44Z"/><ellipse class="cls-13" cx="233.2" cy="188.79" rx="29.36" ry="23.7"/><circle class="cls-21" cx="218.68" cy="190.05" r="2.28" transform="translate(-0.19 0.22) rotate(-0.06)"/><ellipse class="cls-14" cx="233.17" cy="200.63" rx="9.23" ry="10.91"/><path class="cls-21" d="M238.07,200c0,1.92-2.33,5.58-5.21,5.58s-5.22-3.65-5.22-5.57,2.33-3.48,5.22-3.48S238.06,198.1,238.07,200Z"/><circle class="cls-21" cx="247.63" cy="190.03" r="2.28"/><path class="cls-12" d="M42,186.63a2.19,2.19,0,0,1-2.65,1.6h0a2.19,2.19,0,0,1-1.76-2.54l1.95-9.26a2.19,2.19,0,0,1,2.65-1.6h0A2.19,2.19,0,0,1,44,177.38Z"/><polygon class="cls-3" points="185.44 139.87 208 137.42 205.83 131.99 187.62 133.35 185.44 139.87"/><path class="cls-1" d="M184.63,125.19s10.33-2.45,18.21.27,8.7,12.23,8.15,14.95-2.17-1.36-5.71-3.26c-4.06-2.19-18.75,0-18.75,0Z"/><path class="cls-6" d="M204.4,126.14c-1.69,3-2.09,6.64-2.23,10.21a9.1,9.1,0,0,1,3.12.8c3.53,1.9,5.16,6,5.71,3.26C211.5,137.89,210.82,129.5,204.4,126.14Z"/><path class="cls-7" d="M170.25,145.87c.26-7.62,5-21.63,12.6-22.58,1.69-.21,4.79-.13,6.65,1,2.16,1.25,3,3.69,3.33,5.94,1,6.65-1.8,9.93-1.43,14.26.71,8.32-3.09,15.68-12.36,15S170,152.76,170.25,145.87Z"/><path class="cls-17" d="M184.07,158.42a2.48,2.48,0,0,1-.17.52c5.28-1.63,7.68-6.89,7.58-12.93C187,148.11,185,153.85,184.07,158.42Z"/><path class="cls-22" d="M180.47,126.86c-3.57,4-4.16,9.74-2,13.55,2.62,4.66,7.65,5.21,10.51,1,3.09-4.52,3.15-11.12.54-14.09C187.58,125.15,182.58,124.46,180.47,126.86Z"/><path class="cls-23" d="M188.89,135.52c-.95,3.28-3.52,5.16-5.75,4.2s-3.27-4.41-2.32-7.69,3.52-5.16,5.75-4.19S189.84,132.23,188.89,135.52Z"/><circle class="cls-7" cx="184.93" cy="131.86" r="2.86" transform="translate(16.6 284.35) rotate(-77.67)"/><path class="cls-6" d="M176.31,156.82c-2.17.09-4.19,1.71-3.41,4.34s3.41,1.71,3.57-.93c0,0,0,2.79,2.17,2.33S180,156.67,176.31,156.82Z"/><path class="cls-6" d="M184.51,155.6c-2.17.09-4.19,1.71-3.41,4.34s3.41,1.71,3.57-.93c0,0,0,2.79,2.17,2.33S188.24,155.44,184.51,155.6Z"/><path class="cls-23" d="M171.32,139.81c-1.43,1.78-5.7,13.19-2.14,24.78s3.21-2.5,4.81-6.42,3.21-5.35,2.14-10.16A17.54,17.54,0,0,0,171.32,139.81Z"/><path class="cls-17" d="M176.13,148a17.54,17.54,0,0,0-4.81-8.2,11.38,11.38,0,0,0-1.32,2.68c2.34,2.18,1.84,8.17,1.75,10.57-.14,3.56-.2,7.12-.31,10.68-.06,1.78,0,3.54.09,5.29,1.18-.57,1.35-8.15,2.46-10.86C175.59,154.25,177.2,152.82,176.13,148Z"/></svg>